<?xml version="1.0" encoding="utf-8"?>
<!-- Generator: Adobe Illustrator 25.0.0, SVG Export Plug-In . SVG Version: 6.00 Build 0)  -->
<svg version="1.1" id="Capa_1" xmlns="http://www.w3.org/2000/svg" xmlns:xlink="http://www.w3.org/1999/xlink" x="0px" y="0px"
	 viewBox="0 0 580 187" style="enable-background:new 0 0 580 187;" xml:space="preserve">
<style type="text/css">
	.st0{fill:#262626;}
	.st1{fill:#096DD9;}
</style>
<g>
	<g>
		<path class="st0" d="M271.6,133c-5.9,0-11.4-1-16.4-2.9c-5.1-1.9-9.4-4.7-13.2-8.2c-3.7-3.6-6.6-7.8-8.7-12.6
			c-2.1-4.8-3.1-10.1-3.1-15.8s1-11,3.1-15.8c2.1-4.8,5-9,8.7-12.6c3.8-3.6,8.2-6.3,13.2-8.2c5.1-1.9,10.5-2.9,16.4-2.9
			c6.6,0,12.6,1.1,18,3.4c5.4,2.3,9.9,5.7,13.5,10.1L291.8,78c-2.5-3-5.4-5.2-8.7-6.8c-3.2-1.5-6.8-2.3-10.5-2.3
			c-3.6,0-6.8,0.6-9.8,1.8c-3,1.2-5.6,2.9-7.8,5.1c-2.2,2.2-3.9,4.8-5.1,7.8c-1.2,3-1.8,6.3-1.8,9.9c0,3.6,0.6,7,1.8,9.9
			c1.2,3,2.9,5.6,5.1,7.8c2.2,2.2,4.8,3.9,7.8,5.1c3,1.2,6.3,1.8,9.8,1.8c3.8,0,7.3-0.8,10.5-2.3c3.2-1.6,6.1-3.8,8.7-6.8l11.5,10.5
			c-3.6,4.4-8.2,7.8-13.5,10.2C284.4,131.9,278.3,133,271.6,133z"/>
		<path class="st0" d="M315.1,131.7V55.3h14.6l32.5,54h-7.8l31.9-54h14.7v76.5h-16.5l-0.2-51h3.3L362,123.5h-7.9L328,80.7h3.6v51
			H315.1z"/>
		<path class="st0" d="M419.4,131.7V55.3h14.6l32.5,54h-7.8l31.9-54h14.7v76.5H489l-0.2-51h3.3l-25.8,42.8h-7.9l-26.1-42.8h3.6v51
			H419.4z"/>
		<path class="st0" d="M549,133c-6.1,0-12-0.8-17.6-2.5c-5.6-1.6-10.2-3.8-13.6-6.4l6-13.3c3.2,2.3,7.1,4.2,11.6,5.7
			c4.5,1.5,9.1,2.2,13.7,2.2c3.5,0,6.3-0.4,8.5-1.1c2.1-0.7,3.7-1.7,4.8-2.9c1-1.2,1.5-2.6,1.5-4.2c0-2-0.8-3.7-2.4-4.9
			c-1.6-1.2-3.7-2.2-6.4-2.9c-2.7-0.8-5.6-1.5-8.7-2.2c-3.1-0.7-6.3-1.5-9.4-2.5s-6.1-2.3-8.7-3.9c-2.7-1.6-4.8-3.8-6.3-6.4
			c-1.6-2.7-2.3-6-2.3-10c0-4.4,1.2-8.4,3.5-12c2.3-3.6,5.9-6.5,10.6-8.6c4.8-2.1,10.8-3.2,18-3.2c4.8,0,9.6,0.6,14.3,1.7
			c4.7,1.2,8.8,2.8,12.3,5l-5.6,13.3c-3.4-2-7-3.4-10.6-4.4c-3.6-1-7.1-1.5-10.5-1.5c-3.5,0-6.3,0.4-8.4,1.1
			c-2.1,0.8-3.7,1.8-4.6,3.1s-1.5,2.8-1.5,4.4c0,2,0.8,3.7,2.4,4.9c1.6,1.2,3.7,2.2,6.3,2.9c2.6,0.7,5.5,1.4,8.7,2.1
			c3.2,0.7,6.4,1.5,9.5,2.6c3.1,1,6,2.3,8.6,3.9c2.6,1.6,4.8,3.7,6.4,6.3c1.6,2.7,2.5,6,2.5,9.9c0,4.3-1.2,8.2-3.5,11.8
			c-2.4,3.6-6,6.4-10.8,8.6S556.2,133,549,133z"/>
	</g>
	<g>
		<path class="st1" d="M163,119.7c-5-5-9.8-9.9-14.7-14.7c-1-1-0.3-2.1-0.3-3.1c0-0.9,0.4-1.8,0.5-2.6c0.1-2.9,0.4-5.8,0.2-8.6
			c-0.6-9.1-2.9-17.7-7.8-25.4c-1.8-2.8-3.8-5.5-5.9-8c-1.8-2.1-3.7-4.2-5.9-6c-4.4-3.7-9.2-6.8-14.6-8.8c-3.7-1.4-7.6-2.4-11.5-3.4
			c-1.5-0.4-3.2-0.4-4.8-0.5c-1.7-0.1-3.3-0.3-5-0.2c-2.2,0.1-4.3,0.3-6.5,0.5c-3.7,0.2-7.3,1.2-10.8,2.4c-6,1.9-11.4,5-16.4,8.8
			c-2.3,1.8-4.5,3.7-6.4,5.9c-4.4,4.9-8,10.4-10.6,16.6c-1.5,3.7-2.6,7.5-3.3,11.4c-0.7,4.1-1.1,8.3-0.8,12.5
			c0.6,7.9,2.4,15.6,6.3,22.5c1.8,3.1,3.8,6.1,6,9c1.5,2,3.1,3.8,4.9,5.5c5,4.6,10.5,8.4,16.9,10.9c3.8,1.4,7.7,2.7,11.6,3.4
			c4,0.7,8.1,0.7,12.2,0.8c1.7,0,3.5-0.5,5.2-0.7c0.4,0,1,0.1,1.3,0.4c5,5,10.1,10.1,15.3,15.4c-1.3,0.5-2.4,1-3.5,1.4
			c-1,0.3-2,0.5-3.1,0.7c-1.1,0.3-0.9,1.3-1,2.1c-0.4,2.4-0.8,4.8-1.1,7.2c-0.4,2.3-0.8,4.6-1.1,7c-0.3,2.3-1.4,4.8-4.7,4.8
			c-6.6,0.1-13.1,0.2-19.7,0.2c-3.6,0-5.1-1.8-5.5-5.3c-0.3-2.8-1-5.6-1.4-8.4c-0.4-2.1-0.7-4.2-1-6.4c-0.1-0.8-0.4-0.9-1.1-1.1
			c-6.8-1.8-13.3-4.3-19.3-8c-1.2-0.7-1.6-0.6-3.3,0.7c-4.2,3.1-8.3,6.1-12.6,9.1c-1.9,1.4-4.3,0.9-6-0.8
			c-4.6-4.6-9.1-9.3-13.9-13.8c-1.8-1.7-2.2-4.6-0.5-6.9c3.2-4.3,6.3-8.6,9.5-12.9c0.5-0.7,0.5-1.3,0.1-2c-3.8-6-6.3-12.6-8-19.5
			c-0.3-1.1-1.1-1.1-1.7-1.2c-2.9-0.5-5.7-0.8-8.6-1.2c-2.4-0.4-4.9-0.8-7.3-1.2c-1.8-0.4-3.3-2.1-3.4-4C0.1,97.4,0,90.7,0,84.1
			c0-2.3,0.8-4.3,3.2-5.1c1-0.3,2.1-0.5,3.2-0.7c2.4-0.4,4.9-0.8,7.3-1.2c2.2-0.3,4.3-0.6,6.5-1.1c0.4-0.1,0.9-0.5,1-0.9
			c1.7-6.9,4.3-13.5,8.1-19.6c0.9-1.4-0.3-2.2-0.9-3.1c-2.7-3.8-5.5-7.5-8.2-11.2c-0.9-1.2-1.8-2.3-1.7-3.9c0.1-1.4,0.6-2.5,1.6-3.5
			c4.7-4.6,9.3-9.1,13.8-13.8c1.8-1.9,4.7-2.1,6.8-0.4c3.2,2.4,6.5,4.8,9.8,7.2c1.1,0.8,2.2,1.5,3.2,2.4c0.7,0.5,1.3,0.5,1.9,0.1
			c4.3-2.7,8.9-4.8,13.8-6.4c1.9-0.6,3.9-1.2,5.8-1.7c1.2-0.3,1-1.3,1.1-2.1c0.5-2.4,0.8-4.8,1.2-7.3c0.4-2.2,0.8-4.5,1-6.8
			c0.2-2.8,2.1-5,5.1-5c6.8,0.1,13.5,0,20.3,0.1c2.2,0,3.8,1.6,4.1,3.4c0.5,2.6,0.8,5.3,1.2,7.9c0.4,2.2,0.8,4.5,1.2,6.7
			c0,0.1,0.1,0.2,0.1,0.2c-0.3,2.2,1.1,2.8,2.8,3.2c6.3,1.6,12.3,4.1,17.9,7.6c1.5,0.9,2.3-0.3,3.2-0.9c4.2-3,8.2-6,12.4-9
			c2.1-1.5,4.4-1.1,6.2,0.7c4.8,4.8,9.6,9.5,14.4,14.3c1.3,1.3,1.8,3.9-0.1,6.4c-2.8,3.7-5.5,7.4-8.2,11.1c-0.2,0.2-0.3,0.4-0.5,0.7
			c-1.3,2.4-1.8,1.4-0.3,4c3.4,5.8,5.8,12,7.5,18.5c0.4,1.5,1.3,1.3,2.1,1.5c2.4,0.5,4.8,0.8,7.2,1.1c1.8,0.3,3.6,0.5,5.5,0.8
			c1.1,0.2,2.2,0.3,3.3,0.7c2.5,0.8,3.2,2.8,3.2,5.1c0.1,6.2,0.1,12.4,0,18.6c-0.1,3.5-1.7,5.2-5.3,5.6c-2.9,0.3-5.7,1-8.5,1.4
			c-2.1,0.4-4.3,0.6-6.4,1c-0.4,0.1-0.8,0.6-0.9,0.9c-0.7,2-1.2,4.1-1.8,6.2C164,118.5,163.5,119,163,119.7z"/>
		<path class="st0" d="M150.7,169.5c-4.8,0-8.7-1.2-11.9-3.9c-4-3.5-7.6-7.3-11.4-11.1c-8.3-8.3-16.7-16.6-24.9-25
			c-1.3-1.4-2.6-0.9-4-0.8c-2.6,0.3-5.2,0.6-7.8,0.2c-2.8-0.4-5.6-0.8-8.3-1.7c-3.8-1.3-7.2-3.2-10.3-5.6
			c-6.3-5.1-10.3-11.6-12-19.5c-0.7-3-0.9-6.2-0.8-9.3c0.1-2.8,0.8-5.5,1.4-8.3c0.4-1.8,2-2.1,3.3-0.7c6.5,6.5,13.1,13,19.5,19.6
			c2.5,2.6,6.5,3.3,9.6,1.3c0.4-0.3,0.8-0.7,1.2-1.1c2.9-2.9,6-5.8,8.8-8.8c2.1-2.2,2.4-5.4,0.7-8.4c-0.5-0.8-1.1-1.6-1.8-2.2
			C95.6,77.5,89,70.9,82.3,64.3c-0.7-0.7-0.6-1.7,0.4-2.1c1.4-0.6,2.9-1,4.5-1.3c1.9-0.4,3.8-0.7,5.7-0.7c2.3,0,4.6,0.4,7,0.7
			c3.5,0.4,6.7,1.6,9.7,3.2c3.1,1.6,5.9,3.7,8.4,6.2c4.7,4.6,7.6,10.1,9.2,16.3c0.5,1.9,0.6,3.9,0.7,5.8c0.1,1.8,0.1,3.7,0.1,5.5
			c0,1.2-0.4,2.4-0.5,3.6c0,0.5,0.1,1.1,0.4,1.4c3.9,4,7.9,7.9,11.8,11.8c3.1,3.1,6.1,6.1,9.2,9.2c2.8,2.8,5.7,5.5,8.4,8.4
			c2.7,2.8,5.5,5.5,8,8.6c1.9,2.4,2.7,5.4,3,8.5c0.4,4.3-0.6,8.2-2.9,11.8c-2.8,4.3-6.9,6.9-11.9,8
			C152.5,169.4,151.3,169.4,150.7,169.5z"/>
	</g>
</g>
</svg>